<svg width="100" height="100" viewBox="0 0 100 100" fill="none" xmlns="http://www.w3.org/2000/svg">
<path d="M65 30C65 27.3478 63.9464 24.8043 62.0711 22.9289C60.1957 21.0536 57.6522 20 55 20H30C27.3478 20 24.8043 21.0536 22.9289 22.9289C21.0536 24.8043 20 27.3478 20 30V55C20 57.6522 21.0536 60.1957 22.9289 62.0711C24.8043 63.9464 27.3478 65 30 65V45C30 41.0218 31.5804 37.2064 34.3934 34.3934C37.2064 31.5804 41.0218 30 45 30H65Z" fill="black"/>
<path d="M70 35C72.6522 35 75.1957 36.0536 77.0711 37.9289C78.9464 39.8043 80 42.3478 80 45V70C80 72.6522 78.9464 75.1957 77.0711 77.0711C75.1957 78.9464 72.6522 80 70 80H45C42.3478 80 39.8043 78.9464 37.9289 77.0711C36.0536 75.1957 35 72.6522 35 70V45C35 42.3478 36.0536 39.8043 37.9289 37.9289C39.8043 36.0536 42.3478 35 45 35H70Z" fill="black"/>
</svg>
